<svg width="172" height="28" viewBox="0 0 172 28" fill="none" xmlns="http://www.w3.org/2000/svg">
<path d="M6.128 19.832L0.896 14.456L6.128 9.08H10.352L5.12 14.456L10.352 19.832H6.128Z" fill="#4F5E90"/>
<path d="M19.5264 16.304C19.5264 14.96 19.7904 13.768 20.3184 12.728C20.8624 11.688 21.5904 10.888 22.5024 10.328C23.4304 9.768 24.4624 9.488 25.5984 9.488C26.5904 9.488 27.4544 9.688 28.1904 10.088C28.9424 10.488 29.5424 10.992 29.9904 11.6V9.704H33.3744V23H29.9904V21.056C29.5584 21.68 28.9584 22.2 28.1904 22.616C27.4384 23.016 26.5664 23.216 25.5744 23.216C24.4544 23.216 23.4304 22.928 22.5024 22.352C21.5904 21.776 20.8624 20.968 20.3184 19.928C19.7904 18.872 19.5264 17.664 19.5264 16.304ZM29.9904 16.352C29.9904 15.536 29.8304 14.84 29.5104 14.264C29.1904 13.672 28.7584 13.224 28.2144 12.92C27.6704 12.6 27.0864 12.44 26.4624 12.44C25.8384 12.44 25.2624 12.592 24.7344 12.896C24.2064 13.2 23.7744 13.648 23.4384 14.24C23.1184 14.816 22.9584 15.504 22.9584 16.304C22.9584 17.104 23.1184 17.808 23.4384 18.416C23.7744 19.008 24.2064 19.464 24.7344 19.784C25.2784 20.104 25.8544 20.264 26.4624 20.264C27.0864 20.264 27.6704 20.112 28.2144 19.808C28.7584 19.488 29.1904 19.04 29.5104 18.464C29.8304 17.872 29.9904 17.168 29.9904 16.352ZM40.016 5.24V23H36.656V5.24H40.016ZM55.6957 16.064C55.6957 16.544 55.6637 16.976 55.5997 17.36H45.8797C45.9597 18.32 46.2957 19.072 46.8877 19.616C47.4797 20.16 48.2077 20.432 49.0717 20.432C50.3197 20.432 51.2077 19.896 51.7357 18.824H55.3597C54.9757 20.104 54.2397 21.16 53.1517 21.992C52.0637 22.808 50.7277 23.216 49.1437 23.216C47.8637 23.216 46.7117 22.936 45.6877 22.376C44.6797 21.8 43.8877 20.992 43.3117 19.952C42.7517 18.912 42.4717 17.712 42.4717 16.352C42.4717 14.976 42.7517 13.768 43.3117 12.728C43.8717 11.688 44.6557 10.888 45.6637 10.328C46.6717 9.768 47.8317 9.488 49.1437 9.488C50.4077 9.488 51.5357 9.76 52.5277 10.304C53.5357 10.848 54.3117 11.624 54.8557 12.632C55.4157 13.624 55.6957 14.768 55.6957 16.064ZM52.2157 15.104C52.1997 14.24 51.8877 13.552 51.2797 13.04C50.6717 12.512 49.9277 12.248 49.0477 12.248C48.2157 12.248 47.5117 12.504 46.9357 13.016C46.3757 13.512 46.0317 14.208 45.9037 15.104H52.2157ZM65.4922 23L62.7562 18.872L60.3322 23H56.7322L61.0762 16.328L56.6842 9.704H60.4762L63.1882 13.808L65.6362 9.704H69.2362L64.8682 16.328L69.2842 23H65.4922ZM70.2451 16.304C70.2451 14.96 70.5091 13.768 71.0371 12.728C71.5811 11.688 72.3091 10.888 73.2211 10.328C74.1491 9.768 75.1811 9.488 76.3171 9.488C77.3091 9.488 78.1731 9.688 78.9091 10.088C79.6611 10.488 80.2611 10.992 80.7091 11.6V9.704H84.0931V23H80.7091V21.056C80.2771 21.68 79.6771 22.2 78.9091 22.616C78.1571 23.016 77.2851 23.216 76.2931 23.216C75.1731 23.216 74.1491 22.928 73.2211 22.352C72.3091 21.776 71.5811 20.968 71.0371 19.928C70.5091 18.872 70.2451 17.664 70.2451 16.304ZM80.7091 16.352C80.7091 15.536 80.5491 14.84 80.2291 14.264C79.9091 13.672 79.4771 13.224 78.9331 12.92C78.3891 12.6 77.8051 12.44 77.1811 12.44C76.5571 12.44 75.9811 12.592 75.4531 12.896C74.9251 13.2 74.4931 13.648 74.1571 14.24C73.8371 14.816 73.6771 15.504 73.6771 16.304C73.6771 17.104 73.8371 17.808 74.1571 18.416C74.4931 19.008 74.9251 19.464 75.4531 19.784C75.9971 20.104 76.5731 20.264 77.1811 20.264C77.8051 20.264 78.3891 20.112 78.9331 19.808C79.4771 19.488 79.9091 19.04 80.2291 18.464C80.5491 17.872 80.7091 17.168 80.7091 16.352ZM94.7428 9.512C96.3268 9.512 97.6068 10.016 98.5828 11.024C99.5588 12.016 100.047 13.408 100.047 15.2V23H96.6868V15.656C96.6868 14.6 96.4228 13.792 95.8948 13.232C95.3668 12.656 94.6468 12.368 93.7348 12.368C92.8068 12.368 92.0708 12.656 91.5268 13.232C90.9988 13.792 90.7348 14.6 90.7348 15.656V23H87.3748V9.704H90.7348V11.36C91.1828 10.784 91.7508 10.336 92.4388 10.016C93.1428 9.68 93.9108 9.512 94.7428 9.512ZM102.378 16.304C102.378 14.96 102.642 13.768 103.17 12.728C103.714 11.688 104.45 10.888 105.378 10.328C106.306 9.768 107.338 9.488 108.474 9.488C109.338 9.488 110.162 9.68 110.946 10.064C111.73 10.432 112.354 10.928 112.818 11.552V5.24H116.226V23H112.818V21.032C112.402 21.688 111.818 22.216 111.066 22.616C110.314 23.016 109.442 23.216 108.45 23.216C107.33 23.216 106.306 22.928 105.378 22.352C104.45 21.776 103.714 20.968 103.17 19.928C102.642 18.872 102.378 17.664 102.378 16.304ZM112.842 16.352C112.842 15.536 112.682 14.84 112.362 14.264C112.042 13.672 111.61 13.224 111.066 12.92C110.522 12.6 109.938 12.44 109.314 12.44C108.69 12.44 108.114 12.592 107.586 12.896C107.058 13.2 106.626 13.648 106.29 14.24C105.97 14.816 105.81 15.504 105.81 16.304C105.81 17.104 105.97 17.808 106.29 18.416C106.626 19.008 107.058 19.464 107.586 19.784C108.13 20.104 108.706 20.264 109.314 20.264C109.938 20.264 110.522 20.112 111.066 19.808C111.61 19.488 112.042 19.04 112.362 18.464C112.682 17.872 112.842 17.168 112.842 16.352ZM122.868 11.768C123.3 11.064 123.86 10.512 124.548 10.112C125.252 9.712 126.052 9.512 126.948 9.512V13.04H126.06C125.004 13.04 124.204 13.288 123.66 13.784C123.132 14.28 122.868 15.144 122.868 16.376V23H119.508V9.704H122.868V11.768ZM141.571 16.064C141.571 16.544 141.539 16.976 141.475 17.36H131.755C131.835 18.32 132.171 19.072 132.763 19.616C133.355 20.16 134.083 20.432 134.947 20.432C136.195 20.432 137.083 19.896 137.611 18.824H141.235C140.851 20.104 140.115 21.16 139.027 21.992C137.939 22.808 136.603 23.216 135.019 23.216C133.739 23.216 132.587 22.936 131.563 22.376C130.555 21.8 129.763 20.992 129.187 19.952C128.627 18.912 128.347 17.712 128.347 16.352C128.347 14.976 128.627 13.768 129.187 12.728C129.747 11.688 130.531 10.888 131.539 10.328C132.547 9.768 133.707 9.488 135.019 9.488C136.283 9.488 137.411 9.76 138.403 10.304C139.411 10.848 140.187 11.624 140.731 12.632C141.291 13.624 141.571 14.768 141.571 16.064ZM138.091 15.104C138.075 14.24 137.763 13.552 137.155 13.04C136.547 12.512 135.803 12.248 134.923 12.248C134.091 12.248 133.387 12.504 132.811 13.016C132.251 13.512 131.907 14.208 131.779 15.104H138.091Z" fill="#685959"/>
<path d="M158.742 0.271999L152.262 27.344H148.974L155.454 0.271999H158.742ZM161.894 9.08H166.142L171.374 14.456L166.142 19.832H161.894L167.15 14.456L161.894 9.08Z" fill="#4F5E91"/>
</svg>
